<?xml version="1.0" standalone="no"?><!DOCTYPE svg PUBLIC "-//W3C//DTD SVG 1.1//EN" "http://www.w3.org/Graphics/SVG/1.1/DTD/svg11.dtd"><svg class="icon" width="200px" height="200.00px" viewBox="0 0 1024 1024" version="1.1" xmlns="http://www.w3.org/2000/svg"><path d="M90.88 402.773333V273.92C90.88 169.813333 175.36 85.333333 279.466667 85.333333h99.413333c69.546667 0 91.306667 22.613333 119.04 59.733334l59.733333 79.36c13.226667 17.493333 14.933333 20.053333 39.68 20.053333h119.04c101.12-0.426667 187.306667 66.133333 216.746667 158.293333H90.88z" fill="#292D32" opacity=".4" /><path d="M927.573333 402.773333H85.333333v307.626667C85.333333 836.266667 187.733333 938.666667 313.6 938.666667h396.8C836.266667 938.666667 938.666667 836.266667 938.666667 710.4v-238.08c0-2.986667 0-6.826667-0.426667-9.813333-0.853333-20.48-4.266667-40.533333-10.666667-59.733334zM589.226667 768c-8.106667 0-16.213333-2.986667-22.613334-9.386667l-52.906666-52.906666-54.613334 54.613333c-6.4 6.4-14.506667 9.386667-22.613333 9.386667s-16.213333-2.986667-22.613333-9.386667a32.170667 32.170667 0 0 1 0-45.226667l54.613333-54.613333-52.906667-52.906667a32.170667 32.170667 0 0 1 0-45.226666c12.373333-12.373333 32.853333-12.373333 45.226667 0l52.906667 52.906666 51.2-51.2c12.373333-12.373333 32.853333-12.373333 45.226666 0 12.373333 12.373333 12.373333 32.853333 0 45.226667l-51.2 51.2 52.906667 52.906667c12.373333 12.373333 12.373333 32.853333 0 45.226666-6.4 5.973333-14.506667 9.386667-22.613333 9.386667z" fill="#292D32" /></svg>