<?xml version="1.0" standalone="no"?><!DOCTYPE svg PUBLIC "-//W3C//DTD SVG 1.1//EN" "http://www.w3.org/Graphics/SVG/1.1/DTD/svg11.dtd"><svg class="icon" width="200px" height="200.00px" viewBox="0 0 1024 1024" version="1.1" xmlns="http://www.w3.org/2000/svg"><path d="M353.28 85.333333c-16.213333 0-29.866667 13.653333-29.866667 29.866667 0 16.213333 13.653333 29.866667 29.866667 29.866667h139.093333l59.733334 79.36c13.226667 17.493333 14.933333 20.053333 39.68 20.053333h158.72c16.213333 0 32 2.133333 47.36 6.4 1.706667 7.68 2.56 15.36 2.56 23.466667v14.933333c0 16.213333 13.653333 29.866667 29.866666 29.866667 16.213333 0 29.866667-13.653333 29.866667-29.866667v-15.36c-0.853333-104.106667-85.333333-188.586667-189.44-188.586667H353.28z" fill="#292D32" opacity=".4" /><path d="M797.44 250.453333c-14.933333-4.266667-31.146667-6.4-47.36-6.4h-158.72c-24.746667 0-26.453333-2.56-39.68-20.053333l-59.733333-79.36C464.213333 107.946667 442.453333 85.333333 372.906667 85.333333H273.92C169.813333 85.333333 85.333333 169.813333 85.333333 273.92v476.16C85.333333 854.186667 169.813333 938.666667 273.92 938.666667h476.16c104.106667 0 188.586667-84.48 188.586667-188.586667v-317.44c0-63.573333-31.146667-119.466667-79.36-153.6a178.346667 178.346667 0 0 0-61.866667-28.586667zM412.586667 682.666667c-16.64 0-29.866667-13.226667-29.866667-29.866667 0-16.213333 13.226667-29.866667 29.866667-29.866667h198.4c16.213333 0 29.866667 13.653333 29.866666 29.866667 0 16.64-13.226667 29.866667-29.44 29.866667H412.586667z" fill="#292D32" /></svg>