<?xml version="1.0" standalone="no"?><!DOCTYPE svg PUBLIC "-//W3C//DTD SVG 1.1//EN" "http://www.w3.org/Graphics/SVG/1.1/DTD/svg11.dtd"><svg class="icon" width="200px" height="200.00px" viewBox="0 0 1024 1024" version="1.1" xmlns="http://www.w3.org/2000/svg"><path d="M512 512a213.333333 213.333333 0 1 1 0-426.666667 213.333333 213.333333 0 0 1 0 426.666667z" fill="#292D32" /><path d="M124.16 938.666667c0 11.946667 9.386667 21.333333 21.333333 21.333333h733.013334c11.946667 0 21.333333-9.386667 21.333333-21.333333 0-176.64-174.08-320-387.84-320S124.16 762.026667 124.16 938.666667z" fill="#292D32" opacity=".4" /><path d="M819.626667 628.906667l-151.082667 151.04c-5.973333 5.973333-11.52 17.066667-12.8 25.173333l-8.106667 57.6c-2.986667 20.906667 11.52 35.413333 32.426667 32.426667l57.6-8.106667c8.106667-1.28 19.626667-6.826667 25.173333-12.8l151.04-151.04c26.453333-25.6 38.826667-55.893333 0.426667-94.293333-38.4-38.4-68.693333-26.026667-94.72 0z" fill="#292D32" /></svg>