<?xml version="1.0" standalone="no"?><!DOCTYPE svg PUBLIC "-//W3C//DTD SVG 1.1//EN" "http://www.w3.org/Graphics/SVG/1.1/DTD/svg11.dtd"><svg class="icon" width="200px" height="200.00px" viewBox="0 0 1024 1024" version="1.1" xmlns="http://www.w3.org/2000/svg"><path d="M85.333333 402.773333V273.92C85.333333 169.813333 169.813333 85.333333 273.92 85.333333h99.413333c69.546667 0 91.306667 22.613333 119.04 59.733334l59.733334 79.36c13.226667 17.493333 14.933333 20.053333 39.68 20.053333h119.04c101.12-0.426667 187.306667 66.133333 216.746666 158.293333H85.333333z" fill="#292D32" opacity=".4" /><path d="M927.573333 402.773333H85.333333v307.626667C85.333333 836.266667 187.733333 938.666667 313.6 938.666667h396.8C836.266667 938.666667 938.666667 836.266667 938.666667 710.4v-238.08c0-2.986667 0-6.826667-0.426667-9.813333-0.853333-20.906667-4.266667-40.533333-10.666667-59.733334z m-381.013333 290.56V768c0 17.493333-14.506667 32-32 32s-32-14.506667-32-32v-74.666667H405.333333c-17.493333 0-32-14.506667-32-32s14.506667-32 32-32h77.226667V554.666667c0-17.493333 14.506667-32 32-32s32 14.506667 32 32v74.666666h72.106667c17.493333 0 32 14.506667 32 32s-14.506667 32-32 32h-72.106667z" fill="#292D32" /></svg>