<?xml version="1.0" standalone="no"?><!DOCTYPE svg PUBLIC "-//W3C//DTD SVG 1.1//EN" "http://www.w3.org/Graphics/SVG/1.1/DTD/svg11.dtd"><svg class="icon" width="200px" height="200.00px" viewBox="0 0 1024 1024" version="1.1" xmlns="http://www.w3.org/2000/svg"><path d="M85.333333 402.773333V273.92C85.333333 169.813333 169.813333 85.333333 273.92 85.333333h99.413333c69.546667 0 91.306667 22.613333 119.04 59.733334l59.733334 79.36c13.226667 17.493333 14.933333 20.053333 39.68 20.053333h119.04c101.12-0.426667 187.306667 66.133333 216.746666 158.293333H85.333333z" fill="#292D32" opacity=".4" /><path d="M927.573333 402.773333H85.333333v307.626667C85.333333 836.266667 187.733333 938.666667 313.6 938.666667h396.8C836.266667 938.666667 938.666667 836.266667 938.666667 710.4v-238.08c0-2.986667 0-6.826667-0.426667-9.813333-0.853333-20.906667-4.266667-40.533333-10.666667-59.733334z m-398.933333 358.826667a24.661333 24.661333 0 0 1-33.28 0l-91.733333-80.213333c-29.013333-25.6-32.853333-69.12-8.96-99.413334 24.746667-30.72 68.266667-36.266667 99.84-12.8l17.066666 12.8 17.066667-12.8a72.106667 72.106667 0 0 1 99.84 12.8c24.746667 30.293333 20.906667 73.813333-8.106667 99.413334l-91.733333 80.213333z" fill="#292D32" /></svg>