<?xml version="1.0" standalone="no"?><!DOCTYPE svg PUBLIC "-//W3C//DTD SVG 1.1//EN" "http://www.w3.org/Graphics/SVG/1.1/DTD/svg11.dtd"><svg class="icon" width="200px" height="200.00px" viewBox="0 0 1024 1024" version="1.1" xmlns="http://www.w3.org/2000/svg"><path d="M891.733333 494.933333c-11.946667-14.506667-26.026667-26.026667-42.24-34.56-21.76-12.373333-46.506667-18.773333-72.106666-18.773333H246.186667c-25.6 0-49.92 6.4-72.106667 18.773333-16.64 8.96-31.573333 21.333333-43.946667 36.693334-24.32 31.146667-35.84 69.546667-32 107.946666l15.786667 199.253334c5.546667 60.16 12.8 134.4 148.053333 134.4h500.053334c135.253333 0 142.08-74.24 148.053333-134.826667l15.786667-198.4c3.84-35.84-5.546667-71.68-27.306667-101.12l-6.826667-9.386667zM409.6 739.84c-16.64 0-29.866667-13.653333-29.866667-29.866667 0-16.213333 13.226667-29.866667 29.866667-29.866666h204.373333c16.64 0 29.866667 13.653333 29.866667 29.866666 0 16.64-13.226667 29.866667-29.866667 29.866667H409.6z" fill="#292D32" /><path d="M174.08 460.373333c21.76-12.373333 46.506667-18.773333 72.106667-18.773333h531.626666c25.6 0 49.92 6.4 72.106667 18.773333 11.093333 5.973333 20.906667 13.653333 29.866667 22.613334v-64c0-152.32-46.506667-198.826667-198.826667-198.826667h-101.546667c-18.773333 0-19.2-0.426667-30.293333-14.933333l-51.2-68.693334C473.6 104.96 454.4 85.333333 393.386667 85.333333H343.04C190.72 85.333333 144.213333 131.84 144.213333 284.16V482.56c9.386667-8.533333 18.773333-16.213333 29.866667-22.186667z" fill="#292D32" opacity=".4" /></svg>