<?xml version="1.0" standalone="no"?><!DOCTYPE svg PUBLIC "-//W3C//DTD SVG 1.1//EN" "http://www.w3.org/Graphics/SVG/1.1/DTD/svg11.dtd"><svg class="icon" width="200px" height="200.00px" viewBox="0 0 1024 1024" version="1.1" xmlns="http://www.w3.org/2000/svg"><path d="M927.573333 402.773333a228.138667 228.138667 0 0 0-217.173333-158.72h-119.04c-24.746667 0-26.453333-2.56-39.68-20.053333l-59.733333-79.36c-27.733333-37.12-49.493333-59.733333-119.04-59.733333H273.493333c-104.106667 0-188.586667 84.48-188.586666 188.586666v436.48c0 125.866667 102.4 228.266667 228.266666 228.266667h396.8c125.866667 0 228.266667-102.4 228.266667-228.266667v-238.08a34.56 34.56 0 0 0 0-9.386666c-0.853333-20.48-4.266667-40.533333-10.666667-59.733334z" fill="#292D32" opacity=".4" /><path d="M664.746667 840.533333c-90.026667 6.4-90.026667 136.96 0 143.36h213.76c26.026667 0 50.773333-9.386667 69.973333-26.88 63.146667-55.04 29.44-165.973333-53.76-176.213333-29.866667-180.053333-290.56-111.786667-228.693333 59.733333" fill="#292D32" /></svg>