<?xml version="1.0" standalone="no"?><!DOCTYPE svg PUBLIC "-//W3C//DTD SVG 1.1//EN" "http://www.w3.org/Graphics/SVG/1.1/DTD/svg11.dtd"><svg class="icon" width="200px" height="200.00px" viewBox="0 0 1024 1024" version="1.1" xmlns="http://www.w3.org/2000/svg"><path d="M899.413333 657.92c0 47.786667-25.6 92.16-66.986666 116.48l-253.44 146.346667c-41.386667 23.893333-92.586667 23.893333-134.4 0l-253.44-146.346667a134.4 134.4 0 0 1-66.986667-116.48V366.08c0-47.786667 25.6-92.16 66.986667-116.48l253.44-146.346667c41.386667-23.893333 92.586667-23.893333 134.4 0l253.44 146.346667c41.386667 24.32 66.986667 68.266667 66.986666 116.48v291.84z" fill="#292D32" opacity=".4" /><path d="M512 512a99.413333 99.413333 0 1 1 0-198.826667A99.413333 99.413333 0 0 1 512 512z" fill="#292D32" /><path d="M661.76 643.84c-29.013333-43.093333-85.333333-72.106667-149.76-72.106667-64.426667 0-120.746667 29.013333-149.76 72.106667-19.2 28.586667 0.853333 66.986667 35.413333 66.986667h228.693334c34.56 0 54.613333-38.4 35.413333-66.986667z" fill="#292D32" /></svg>