<?xml version="1.0" standalone="no"?><!DOCTYPE svg PUBLIC "-//W3C//DTD SVG 1.1//EN" "http://www.w3.org/Graphics/SVG/1.1/DTD/svg11.dtd"><svg class="icon" width="200px" height="200.00px" viewBox="0 0 1024 1024" version="1.1" xmlns="http://www.w3.org/2000/svg"><path d="M512 512a213.333333 213.333333 0 1 1 0-426.666667 213.333333 213.333333 0 0 1 0 426.666667z" fill="#292D32" /><path d="M124.16 938.666667c0 11.946667 9.386667 21.333333 21.333333 21.333333h733.013334c11.946667 0 21.333333-9.386667 21.333333-21.333333 0-176.64-174.08-320-387.84-320S124.16 762.026667 124.16 938.666667z" fill="#292D32" opacity=".4" /><path d="M939.093333 849.92c17.066667-25.6 26.88-56.32 26.88-89.173333a162.986667 162.986667 0 1 0-162.986666 162.986666c32.853333 0 63.573333-9.813333 89.173333-26.88l32.426667 32.426667c6.4 6.4 14.933333 9.813333 23.466666 9.813333 8.533333 0 17.066667-3.413333 23.466667-9.813333 13.226667-13.226667 13.226667-34.133333 0-46.933333l-32.426667-32.426667z" fill="#292D32" /></svg>