<?xml version="1.0" standalone="no"?><!DOCTYPE svg PUBLIC "-//W3C//DTD SVG 1.1//EN" "http://www.w3.org/Graphics/SVG/1.1/DTD/svg11.dtd"><svg class="icon" width="200px" height="200.00px" viewBox="0 0 1024 1024" version="1.1" xmlns="http://www.w3.org/2000/svg"><path d="M512 939.093333c-235.648 0-426.666667-191.018667-426.666667-426.666666s191.018667-426.666667 426.666667-426.666667 426.666667 191.018667 426.666667 426.666667-191.018667 426.666667-426.666667 426.666666z" fill="#292D32" opacity=".4" /><path d="M352 456.106667c0 86.613333 67.84 157.013333 157.866667 159.573333h7.68a159.701333 159.701333 0 0 0 154.453333-159.573333c0-88.32-71.68-160-160-160-88.32 0-160 71.68-160 160zM512 939.093333c-111.786667 0-213.333333-43.093333-289.28-113.066666 10.24-38.826667 37.973333-74.24 78.506667-101.546667 116.48-77.653333 305.92-77.653333 421.546666 0 40.96 27.306667 68.266667 62.72 78.506667 101.546667A425.642667 425.642667 0 0 1 512 939.093333z" fill="#292D32" /></svg>