<?xml version="1.0" standalone="no"?><!DOCTYPE svg PUBLIC "-//W3C//DTD SVG 1.1//EN" "http://www.w3.org/Graphics/SVG/1.1/DTD/svg11.dtd"><svg class="icon" width="200px" height="200.00px" viewBox="0 0 1024 1024" version="1.1" xmlns="http://www.w3.org/2000/svg"><path d="M710.4 874.24a405.888 405.888 0 0 1-442.88-2.56v-9.813333c0-99.413333 99.413333-180.48 221.44-180.48 122.453333 0 221.44 81.066667 221.44 180.48v12.373333z" fill="#292D32" /><path d="M710.4 874.24v-12.373333c0-99.413333-98.986667-180.48-221.44-180.48-122.026667 0-221.44 81.066667-221.44 180.48v9.813333A404.778667 404.778667 0 0 1 85.333333 533.333333C85.333333 309.333333 266.666667 128 490.666667 128c55.893333 0 109.226667 11.093333 157.866666 31.573333-5.546667 17.066667-8.533333 34.986667-8.533333 53.76 0 32 8.96 62.293333 24.746667 87.893334 8.533333 14.506667 19.626667 27.733333 32.426666 38.826666C727.04 367.36 766.72 384 810.666667 384c18.773333 0 36.693333-2.986667 53.333333-8.96 20.48 48.64 32 102.4 32 158.293333 0 142.933333-73.813333 268.373333-185.6 340.906667z" fill="#292D32" opacity=".4" /><path d="M810.666667 42.666667a170.453333 170.453333 0 0 0-170.666667 170.666666c0 32 8.96 62.293333 24.746667 87.893334 8.533333 14.506667 19.626667 27.733333 32.426666 38.826666C727.04 367.36 766.72 384 810.666667 384c18.773333 0 36.693333-2.986667 53.333333-8.96 39.253333-12.373333 72.106667-39.253333 92.586667-73.813333 8.96-14.506667 15.786667-31.146667 19.626666-48.213334 3.413333-12.8 5.12-26.026667 5.12-39.68 0-43.52-16.64-83.626667-43.946666-113.92A168.277333 168.277333 0 0 0 810.666667 42.666667z m32 201.813333v33.28c0 17.493333-14.506667 32-32 32s-32-14.506667-32-32v-33.28h-31.573334c-17.493333 0-32-14.506667-32-32s14.506667-32 32-32h31.573334v-30.293333c0-17.493333 14.506667-32 32-32s32 14.506667 32 32v30.293333h31.573333a31.957333 31.957333 0 1 1 0 64h-31.573333zM488.96 628.48a119.893333 119.893333 0 1 1 0-239.786667 119.893333 119.893333 0 0 1 0 239.786667z" fill="#292D32" /></svg>