<?xml version="1.0" standalone="no"?><!DOCTYPE svg PUBLIC "-//W3C//DTD SVG 1.1//EN" "http://www.w3.org/Graphics/SVG/1.1/DTD/svg11.dtd"><svg class="icon" width="200px" height="200.00px" viewBox="0 0 1024 1024" version="1.1" xmlns="http://www.w3.org/2000/svg"><path d="M735.573333 804.693333c-34.133333 0-66.56 13.226667-90.453333 37.12l-72.96 72.106667c-33.28 32.853333-87.466667 32.853333-120.746667 0l-72.96-72.106667c-23.893333-23.893333-56.746667-37.12-90.453333-37.12H256c-70.826667 0-128-56.746667-128-126.72V212.48c0-69.973333 57.173333-126.72 128-126.72h512c70.826667 0 128 56.746667 128 126.72v465.493333c0 69.546667-57.173333 126.72-128 126.72h-32.426667z" fill="#292D32" opacity=".4" /><path d="M512 444.16a99.413333 99.413333 0 1 1 0-198.826667 99.413333 99.413333 0 0 1 0 198.826667z" fill="#292D32" /><path d="M661.76 575.573333c-29.013333-43.093333-85.333333-72.106667-149.76-72.106666-64.426667 0-120.746667 29.013333-149.76 72.106666-19.2 28.586667 0.853333 66.986667 35.413333 66.986667h228.693334c34.56 0 54.613333-38.4 35.413333-66.986667z" fill="#292D32" /></svg>