<?xml version="1.0" standalone="no"?><!DOCTYPE svg PUBLIC "-//W3C//DTD SVG 1.1//EN" "http://www.w3.org/Graphics/SVG/1.1/DTD/svg11.dtd"><svg class="icon" width="200px" height="200.00px" viewBox="0 0 1024 1024" version="1.1" xmlns="http://www.w3.org/2000/svg"><path d="M661.333333 592.213333A169.386667 169.386667 0 0 0 597.333333 725.333333c0 32 8.96 62.293333 24.746667 87.893334A169.386667 169.386667 0 0 0 768 896c43.093333 0 82.346667-15.786667 112.213333-42.666667 13.226667-11.093333 24.746667-24.746667 33.706667-40.106666 15.786667-25.6 24.746667-55.893333 24.746667-87.893334a170.624 170.624 0 0 0-277.333334-133.12z m104.106667 198.826667c-5.973333 5.546667-14.08 8.533333-21.76 8.533333-8.106667 0-16.213333-2.986667-22.613333-9.386666l-42.24-42.24a32.213333 32.213333 0 0 1 0-45.226667c12.373333-12.373333 32.853333-12.373333 45.226666 0l20.48 20.48 68.266667-63.146667c12.8-11.946667 33.28-11.093333 45.226667 1.706667s11.093333 32.853333-1.706667 45.226667l-90.88 84.053333z" fill="#292D32" /><path d="M878.506667 938.666667H145.493333c-11.946667 0-21.333333-9.386667-21.333333-21.333334 0-176.64 174.08-320 387.84-320 43.946667 0 86.613333 5.973333 125.866667 17.493334-25.173333 29.866667-40.533333 68.693333-40.533334 110.506666 0 32 8.96 62.293333 24.746667 87.893334 8.533333 14.506667 19.626667 27.733333 32.426667 38.826666 29.866667 27.306667 69.546667 43.946667 113.493333 43.946667 47.786667 0 90.88-19.626667 121.6-51.2 6.826667 23.04 10.24 47.36 10.24 72.533333 0 11.946667-9.386667 21.333333-21.333333 21.333334z" fill="#292D32" opacity=".4" /><path d="M512 512a213.333333 213.333333 0 1 1 0-426.666667 213.333333 213.333333 0 0 1 0 426.666667z" fill="#292D32" /></svg>