<?xml version="1.0" standalone="no"?><!DOCTYPE svg PUBLIC "-//W3C//DTD SVG 1.1//EN" "http://www.w3.org/Graphics/SVG/1.1/DTD/svg11.dtd"><svg class="icon" width="200px" height="200.00px" viewBox="0 0 1024 1024" version="1.1" xmlns="http://www.w3.org/2000/svg"><path d="M738.986667 331.52a122.624 122.624 0 0 1-118.613334-122.88C620.373333 140.8 675.413333 85.333333 743.68 85.333333c67.84 0 123.306667 55.04 123.306667 123.306667a123.306667 123.306667 0 0 1-119.04 122.88 31.530667 31.530667 0 0 0-8.96 0zM710.4 663.04c16.213333-34.986667 24.746667-73.813333 25.173333-114.773333 0-42.666667-9.386667-83.2-27.306666-118.613334 63.146667-8.533333 130.133333 3.413333 178.346666 35.413334 67.413333 44.373333 67.413333 117.333333 0.426667 162.133333-47.786667 32-114.773333 43.946667-176.64 35.84zM283.733333 331.52a122.624 122.624 0 0 0 118.613334-122.88C402.346667 140.8 347.306667 85.333333 279.04 85.333333 211.2 85.333333 155.733333 140.373333 155.733333 208.64a123.306667 123.306667 0 0 0 119.04 122.88c2.986667-0.426667 5.973333-0.426667 8.96 0zM304.64 664.32c-60.16 6.4-122.88-6.4-168.96-36.693333-67.413333-44.8-67.413333-117.76 0-162.56 45.653333-30.72 110.08-43.093333 170.666667-36.266667-17.493333 35.84-26.88 76.373333-26.88 119.466667 0 41.386667 8.96 80.64 25.173333 116.053333z" fill="#292D32" opacity=".4" /><path d="M506.026667 677.12a146.133333 146.133333 0 0 1-141.226667-146.346667c0-81.066667 65.28-146.773333 146.773333-146.773333 81.066667 0 146.773333 65.706667 146.773334 146.773333 0 79.36-62.293333 143.786667-141.226667 146.346667a48.213333 48.213333 0 0 0-11.093333 0zM378.453333 922.026667c73.386667 49.066667 193.706667 49.066667 267.093334 0 64.426667-43.093333 64.426667-113.92 0-156.586667-72.96-49.066667-193.28-49.066667-267.093334 0-64.426667 43.093333-64.426667 113.92 0 156.586667z" fill="#292D32" /></svg>