<?xml version="1.0" standalone="no"?><!DOCTYPE svg PUBLIC "-//W3C//DTD SVG 1.1//EN" "http://www.w3.org/Graphics/SVG/1.1/DTD/svg11.dtd"><svg class="icon" width="200px" height="200.00px" viewBox="0 0 1024 1024" version="1.1" xmlns="http://www.w3.org/2000/svg"><path d="M878.506667 938.666667H145.493333c-11.946667 0-21.333333-9.386667-21.333333-21.333334 0-176.64 174.08-320 387.84-320 43.946667 0 86.613333 5.973333 125.866667 17.493334-25.173333 29.866667-40.533333 68.693333-40.533334 110.506666 0 32 8.96 62.293333 24.746667 87.893334 8.533333 14.506667 19.626667 27.733333 32.426667 38.826666 29.866667 27.306667 69.546667 43.946667 113.493333 43.946667 47.786667 0 90.88-19.626667 121.6-51.2 6.826667 23.04 10.24 47.36 10.24 72.533333 0 11.946667-9.386667 21.333333-21.333333 21.333334z" fill="#292D32" opacity=".4" /><path d="M913.066667 636.16c-6.4-11.093333-14.933333-21.76-24.32-31.573333a170.154667 170.154667 0 0 0-111.786667-49.493334c-46.506667-2.986667-93.866667 14.08-129.706667 49.493334a170.965333 170.965333 0 0 0 0 241.493333c22.613333 22.613333 50.346667 37.546667 79.786667 44.373333 16.213333 4.266667 33.28 5.973333 50.346667 4.693334 40.533333-1.706667 80.213333-17.92 111.36-49.066667a169.813333 169.813333 0 0 0 24.32-209.92z m-122.026667 157.44l-23.466667-23.466667-22.613333 22.613334c-12.373333 12.373333-32.853333 12.373333-45.226667 0a32.170667 32.170667 0 0 1 0-45.226667l22.613334-22.613333-21.76-21.333334a32.725333 32.725333 0 0 1 0-45.653333c12.8-12.373333 32.853333-12.373333 45.653333 0l21.333333 21.76 22.613334-22.613333c12.373333-12.373333 32.426667-12.373333 45.226666 0 12.373333 12.373333 12.373333 32.853333 0 45.226666l-22.613333 22.613334 23.466667 23.466666c12.373333 12.373333 12.373333 32.853333 0 45.226667-12.373333 12.373333-32.853333 12.373333-45.226667 0zM512 512a213.333333 213.333333 0 1 1 0-426.666667 213.333333 213.333333 0 0 1 0 426.666667z" fill="#292D32" /></svg>