<?xml version="1.0" standalone="no"?><!DOCTYPE svg PUBLIC "-//W3C//DTD SVG 1.1//EN" "http://www.w3.org/Graphics/SVG/1.1/DTD/svg11.dtd"><svg class="icon" width="200px" height="200.00px" viewBox="0 0 1024 1024" version="1.1" xmlns="http://www.w3.org/2000/svg"><path d="M938.666667 690.773333c0 119.893333-55.04 202.24-151.893334 233.386667-28.16 9.813333-60.586667 14.506667-96 14.506667H333.226667c-35.413333 0-67.84-4.693333-96-14.506667C140.373333 893.013333 85.333333 810.666667 85.333333 690.773333V333.226667C85.333333 177.92 177.92 85.333333 333.226667 85.333333h357.546666C846.08 85.333333 938.666667 177.92 938.666667 333.226667v357.546666z" fill="#292D32" opacity=".4" /><path d="M690.773333 938.666667H333.226667c-35.413333 0-67.84-4.693333-96-14.506667 14.933333-112.64 132.693333-200.106667 274.773333-200.106667 142.08 0 259.84 87.466667 274.773333 200.106667-28.16 9.813333-60.586667 14.506667-96 14.506667zM512 647.253333c-84.48 0-152.746667-68.693333-152.746667-153.173333C359.253333 409.6 427.52 341.333333 512 341.333333s152.746667 68.266667 152.746667 152.746667-68.266667 153.173333-152.746667 153.173333z" fill="#292D32" /></svg>