<?xml version="1.0" standalone="no"?><!DOCTYPE svg PUBLIC "-//W3C//DTD SVG 1.1//EN" "http://www.w3.org/Graphics/SVG/1.1/DTD/svg11.dtd"><svg class="icon" width="200px" height="200.00px" viewBox="0 0 1024 1024" version="1.1" xmlns="http://www.w3.org/2000/svg"><path d="M768 554.666667a170.453333 170.453333 0 0 0-170.666667 170.666666c0 32 8.96 62.293333 24.746667 87.893334 8.533333 14.506667 19.626667 27.733333 32.426667 38.826666 29.866667 27.306667 69.546667 43.946667 113.493333 43.946667 62.293333 0 116.48-33.28 145.92-82.773333 8.96-14.506667 15.786667-31.146667 19.626667-48.213334 3.413333-12.8 5.12-26.026667 5.12-39.68 0-43.52-16.64-83.626667-43.946667-113.92A168.277333 168.277333 0 0 0 768 554.666667z m-63.573333 201.813333c-17.493333 0-32-14.506667-32-32s14.506667-32 32-32h127.573333c17.493333 0 32 14.506667 32 32s-14.506667 32-32 32h-127.573333z" fill="#292D32" /><path d="M878.506667 938.666667H145.493333c-11.946667 0-21.333333-9.386667-21.333333-21.333334 0-176.64 174.08-320 387.84-320 43.946667 0 86.613333 5.973333 125.866667 17.493334-25.173333 29.866667-40.533333 68.693333-40.533334 110.506666 0 32 8.96 62.293333 24.746667 87.893334 8.533333 14.506667 19.626667 27.733333 32.426667 38.826666 29.866667 27.306667 69.546667 43.946667 113.493333 43.946667 47.786667 0 90.88-19.626667 121.6-51.2 6.826667 23.04 10.24 47.36 10.24 72.533333 0 11.946667-9.386667 21.333333-21.333333 21.333334z" fill="#292D32" opacity=".4" /><path d="M512 512a213.333333 213.333333 0 1 1 0-426.666667 213.333333 213.333333 0 0 1 0 426.666667z" fill="#292D32" /></svg>